<svg height="300px" width="300px" fill="#000000" xmlns="http://www.w3.org/2000/svg" xmlns:xlink="http://www.w3.org/1999/xlink" version="1.1" x="0px" y="0px" viewBox="0 0 100 100" enable-background="new 0 0 100 100" xml:space="preserve">
    <g>
        <path fill="#000000" d="M66.253,26.517c-0.443,0.516-1.084,0.812-1.758,0.812H35.423c-0.673,0-1.312-0.295-1.756-0.81   c-0.155-0.18-0.426-0.2-0.606-0.045c-0.18,0.155-0.2,0.426-0.045,0.606c0.607,0.704,1.484,1.108,2.406,1.108h29.072   c0.924,0,1.802-0.405,2.409-1.111c0.155-0.18,0.134-0.451-0.046-0.606C66.678,26.316,66.407,26.337,66.253,26.517z"></path>
        <path fill="#000000" d="M27.368,14.976c0.11,0,0.22-0.042,0.304-0.126l1.34-1.34c0.307,0.206,0.676,0.327,1.073,0.327   c0.289,0,0.562-0.066,0.809-0.18l0.394,0.395c0.084,0.084,0.194,0.126,0.304,0.126s0.22-0.042,0.304-0.126   c0.168-0.168,0.168-0.44,0-0.607l-0.317-0.317c0.272-0.333,0.436-0.758,0.436-1.22c0-0.397-0.121-0.766-0.327-1.073l1.149-1.149   c0.168-0.168,0.168-0.439,0-0.607c-0.168-0.168-0.439-0.168-0.607,0l-1.168,1.167c-0.287-0.17-0.621-0.269-0.978-0.269   c-0.463,0-0.888,0.164-1.22,0.436l-0.679-0.679c-0.168-0.168-0.44-0.168-0.607,0c-0.168,0.168-0.168,0.44,0,0.607l0.756,0.757   c-0.114,0.246-0.18,0.52-0.18,0.809c0,0.357,0.099,0.691,0.269,0.978l-1.359,1.359c-0.168,0.168-0.168,0.439,0,0.607   C27.148,14.934,27.258,14.976,27.368,14.976z M30.084,10.836c0.592,0,1.071,0.48,1.071,1.071c0,0.592-0.48,1.071-1.071,1.071   c-0.592,0-1.071-0.48-1.071-1.071C29.013,11.315,29.492,10.836,30.084,10.836z"></path>
        <path fill="#000000" d="M40.707,14.976c0.11,0,0.22-0.042,0.304-0.126l1.34-1.34c0.307,0.206,0.676,0.327,1.073,0.327   c0.289,0,0.562-0.066,0.809-0.18l0.394,0.395c0.084,0.084,0.194,0.126,0.304,0.126s0.22-0.042,0.304-0.126   c0.168-0.168,0.168-0.44,0-0.607l-0.317-0.317c0.272-0.333,0.436-0.758,0.436-1.22c0-0.397-0.121-0.766-0.327-1.073l1.149-1.149   c0.168-0.168,0.168-0.439,0-0.607c-0.168-0.168-0.439-0.168-0.607,0l-1.168,1.167c-0.287-0.17-0.621-0.269-0.978-0.269   c-0.463,0-0.888,0.164-1.22,0.436l-0.679-0.679c-0.168-0.168-0.44-0.168-0.607,0c-0.168,0.168-0.168,0.44,0,0.607l0.756,0.757   c-0.114,0.246-0.18,0.52-0.18,0.809c0,0.357,0.099,0.691,0.269,0.978l-1.359,1.359c-0.168,0.168-0.168,0.439,0,0.607   C40.487,14.934,40.597,14.976,40.707,14.976z M43.424,10.836c0.592,0,1.071,0.48,1.071,1.071c0,0.592-0.48,1.071-1.071,1.071   c-0.592,0-1.071-0.48-1.071-1.071C42.352,11.315,42.832,10.836,43.424,10.836z"></path>
        <path fill="#000000" d="M34.037,20.972c0.11,0,0.22-0.042,0.304-0.126l1.34-1.34c0.307,0.206,0.676,0.327,1.073,0.327   c0.289,0,0.563-0.066,0.809-0.18l0.394,0.395c0.084,0.084,0.194,0.126,0.304,0.126s0.22-0.042,0.304-0.126   c0.168-0.168,0.168-0.439,0-0.607l-0.317-0.317c0.272-0.333,0.436-0.758,0.436-1.22c0-0.397-0.121-0.766-0.327-1.073l1.149-1.149   c0.168-0.168,0.168-0.439,0-0.607c-0.168-0.168-0.439-0.168-0.607,0l-1.168,1.168c-0.287-0.17-0.621-0.269-0.978-0.269   c-0.463,0-0.888,0.164-1.221,0.436l-0.679-0.679c-0.168-0.168-0.44-0.168-0.607,0c-0.168,0.168-0.168,0.44,0,0.607l0.756,0.757   c-0.114,0.246-0.18,0.52-0.18,0.809c0,0.357,0.099,0.691,0.269,0.978l-1.359,1.359c-0.168,0.168-0.168,0.439,0,0.607   C33.818,20.931,33.928,20.972,34.037,20.972z M36.754,16.832c0.592,0,1.071,0.48,1.071,1.071c0,0.592-0.48,1.071-1.071,1.071   c-0.592,0-1.071-0.48-1.071-1.071C35.683,17.311,36.162,16.832,36.754,16.832z"></path>
        <path fill="#000000" d="M47.377,20.972c0.11,0,0.22-0.042,0.304-0.126l1.34-1.34c0.307,0.206,0.676,0.327,1.073,0.327   c0.289,0,0.563-0.066,0.809-0.18l0.394,0.395c0.084,0.084,0.194,0.126,0.304,0.126s0.22-0.042,0.304-0.126   c0.168-0.168,0.168-0.439,0-0.607l-0.317-0.317c0.272-0.333,0.436-0.758,0.436-1.22c0-0.397-0.121-0.766-0.327-1.073l1.149-1.149   c0.168-0.168,0.168-0.439,0-0.607c-0.168-0.168-0.439-0.168-0.607,0l-1.168,1.168c-0.287-0.17-0.621-0.269-0.978-0.269   c-0.463,0-0.888,0.164-1.221,0.436l-0.679-0.679c-0.168-0.168-0.44-0.168-0.607,0c-0.168,0.168-0.168,0.44,0,0.607l0.756,0.757   c-0.114,0.246-0.18,0.52-0.18,0.809c0,0.357,0.099,0.691,0.269,0.978l-1.359,1.359c-0.168,0.168-0.168,0.439,0,0.607   C47.157,20.931,47.267,20.972,47.377,20.972z M50.093,16.832c0.592,0,1.071,0.48,1.071,1.071c0,0.592-0.48,1.071-1.071,1.071   c-0.592,0-1.071-0.48-1.071-1.071C49.022,17.311,49.502,16.832,50.093,16.832z"></path>
        <path fill="#000000" d="M60.717,20.972c0.11,0,0.22-0.042,0.304-0.126l1.34-1.34c0.307,0.206,0.676,0.327,1.073,0.327   c0.289,0,0.563-0.066,0.809-0.18l0.394,0.395c0.084,0.084,0.194,0.126,0.304,0.126s0.22-0.042,0.304-0.126   c0.168-0.168,0.168-0.439,0-0.607l-0.317-0.317c0.272-0.333,0.436-0.758,0.436-1.22c0-0.397-0.121-0.766-0.327-1.073l1.149-1.149   c0.168-0.168,0.168-0.439,0-0.607s-0.439-0.168-0.607,0l-1.168,1.168c-0.287-0.17-0.621-0.269-0.978-0.269   c-0.463,0-0.888,0.164-1.221,0.436l-0.679-0.679c-0.168-0.168-0.44-0.168-0.607,0c-0.168,0.168-0.168,0.44,0,0.607l0.756,0.757   c-0.114,0.246-0.18,0.52-0.18,0.809c0,0.357,0.099,0.691,0.269,0.978l-1.359,1.359c-0.168,0.168-0.168,0.439,0,0.607   C60.497,20.931,60.607,20.972,60.717,20.972z M63.433,16.832c0.592,0,1.071,0.48,1.071,1.071c0,0.592-0.48,1.071-1.071,1.071   c-0.592,0-1.071-0.48-1.071-1.071C62.362,17.311,62.842,16.832,63.433,16.832z"></path>
        <path fill="#000000" d="M54.047,14.976c0.11,0,0.22-0.042,0.304-0.126l1.34-1.34c0.307,0.206,0.676,0.327,1.073,0.327   c0.289,0,0.562-0.066,0.809-0.18l0.394,0.395c0.084,0.084,0.194,0.126,0.304,0.126s0.22-0.042,0.304-0.126   c0.168-0.168,0.168-0.44,0-0.607l-0.317-0.317c0.272-0.333,0.436-0.758,0.436-1.22c0-0.397-0.121-0.766-0.327-1.073l1.149-1.149   c0.168-0.168,0.168-0.439,0-0.607c-0.168-0.168-0.439-0.168-0.607,0l-1.168,1.167c-0.287-0.17-0.621-0.269-0.978-0.269   c-0.463,0-0.888,0.164-1.22,0.436l-0.679-0.679c-0.168-0.168-0.44-0.168-0.607,0c-0.168,0.168-0.168,0.44,0,0.607l0.756,0.757   c-0.114,0.246-0.18,0.52-0.18,0.809c0,0.357,0.099,0.691,0.269,0.978l-1.359,1.359c-0.168,0.168-0.168,0.439,0,0.607   C53.827,14.934,53.937,14.976,54.047,14.976z M56.763,10.836c0.592,0,1.071,0.48,1.071,1.071c0,0.592-0.48,1.071-1.071,1.071   c-0.592,0-1.071-0.48-1.071-1.071C55.692,11.315,56.172,10.836,56.763,10.836z"></path>
        <path fill="#000000" d="M67.387,14.976c0.11,0,0.22-0.042,0.304-0.126l1.34-1.34c0.307,0.206,0.676,0.327,1.073,0.327   c0.289,0,0.562-0.066,0.809-0.18l0.394,0.395c0.084,0.084,0.194,0.126,0.304,0.126s0.22-0.042,0.304-0.126   c0.168-0.168,0.168-0.44,0-0.607l-0.317-0.317c0.272-0.333,0.436-0.758,0.436-1.22c0-0.397-0.121-0.766-0.327-1.073l1.149-1.149   c0.168-0.168,0.168-0.439,0-0.607s-0.439-0.168-0.607,0l-1.168,1.167c-0.287-0.17-0.621-0.269-0.978-0.269   c-0.463,0-0.888,0.164-1.22,0.436l-0.679-0.679c-0.168-0.168-0.44-0.168-0.607,0c-0.168,0.168-0.168,0.44,0,0.607l0.756,0.757   c-0.114,0.246-0.18,0.52-0.18,0.809c0,0.357,0.099,0.691,0.269,0.978l-1.359,1.359c-0.168,0.168-0.168,0.439,0,0.607   C67.167,14.934,67.277,14.976,67.387,14.976z M70.103,10.836c0.592,0,1.071,0.48,1.071,1.071c0,0.592-0.48,1.071-1.071,1.071   c-0.592,0-1.071-0.48-1.071-1.071C69.032,11.315,69.512,10.836,70.103,10.836z"></path>
        <path fill="#000000" d="M92.79,72.942l0.006-0.005l-0.047-0.137c-0.057-0.297-0.147-0.583-0.262-0.854l-6.112-20.113l0.023-0.025   l-0.044-0.042L83.5,42.302c-0.308-1.014-0.94-1.925-1.799-2.612V14.503c0-5.209-4.281-9.503-9.49-9.503H27.708   c-5.209,0-9.385,4.294-9.385,9.503V39.69c-0.859,0.686-1.543,1.598-1.851,2.612l-2.891,9.464l-0.052,0.042l0.02,0.025L7.437,71.945   c-0.115,0.272-0.203,0.558-0.26,0.854l-0.042,0.137l0.047,0.005c-0.035,0.22-0.023,0.445-0.023,0.674v17.176   c0,2.368,1.864,4.209,4.232,4.209h77.137c2.368,0,4.337-1.841,4.337-4.209V73.616C92.865,73.386,92.825,73.161,92.79,72.942z    M89.968,69.528c-0.45-0.161-0.934-0.291-1.439-0.291H11.391c-0.505,0-0.989,0.131-1.439,0.291l5.124-16.846l2.14-1.974   c1.222-1.15,3.671-2.081,5.348-2.081h54.79c1.677,0,4.127,0.942,5.348,2.092l2.14,1.978L89.968,69.528z M20.041,14.503   c0-4.262,3.405-7.785,7.667-7.785h44.504c4.262,0,7.772,3.524,7.772,7.785v24.214c-0.515-0.201-1.18-0.397-1.76-0.397h-7.343   V26.728c0-2.368-1.858-4.209-4.226-4.209h-33.39c-2.368,0-4.293,1.841-4.293,4.209v11.593h-7.276c-0.58,0-1.14,0.196-1.655,0.397   V14.503z M69.163,38.321H30.69V26.728c0-1.421,1.155-2.491,2.575-2.491h33.39c1.421,0,2.508,1.071,2.508,2.491V38.321z    M18.084,42.758c0.441-1.451,2.095-2.72,3.612-2.72h56.527c1.517,0,3.171,1.269,3.612,2.72l2.006,6.653   c-1.551-1.434-4.386-2.503-6.486-2.503h-54.79c-2.1,0-4.936,1.069-6.486,2.503L18.084,42.758z M91.148,90.791   c0,1.421-1.199,2.491-2.619,2.491H11.391c-1.421,0-2.514-1.071-2.514-2.491V73.616c0-0.147-0.016-0.29,0.008-0.43l0.175-0.67   c0.405-0.894,1.288-1.562,2.331-1.562h77.137c1.044,0,1.942,0.667,2.347,1.562l0.212,0.649c0.024,0.14,0.06,0.304,0.06,0.451   V90.791z"></path>
    </g>
</svg>